<svg width="207" height="22"><g fill-rule="nonzero" fill="none"><g font-family="Ubuntu-Bold, Ubuntu" font-size="18" font-weight="bold"><text transform="translate(31 2)" fill="#A8AFAF"><tspan x="0" y="17">GREENBAUM</tspan></text><text transform="translate(145 2)" fill="#47B04B"><tspan x="0" y="17">CLOUD</tspan></text></g><path d="M17.5 13.083h-4.417V8.901H17.5v-.012L22 8.9V20.5a1.5 1.5 0 01-1.5 1.5H3a3 3 0 01-3-3V3a3 3 0 013-3h10.189v4.5H5.5a1 1 0 00-1 1v11a1 1 0 001 1l12-.012v-4.405z" fill="#A8AFAF"></path><path d="M22 5.602h-5.602V0H22z" fill="#47B04B"></path></g></svg>
